# xmcd
#
# Track frame offsets:
#	182
#	9995
#	24430
#	38810
#	54735
#	67002
#	77350
#	89940
#	103552
#	115097
#	127247
#	140205
#
# Disc length: 2016 seconds
#
# Revision: 1
# Processed by: cddbd v1.4PL0 Copyright (c) Steve Scherf et al.
# Submitted via: audiograbber 1.80
#
DISCID=a607de0c
DTITLE=Patti LaBelle and The Bluebelles         FJGG - The Early Hits
DYEAR=1900
DGENRE=
TTITLE0=I Sold my Heart to the Junkman
TTITLE1=You'll Never Walk Alone
TTITLE2=Where are You
TTITLE3=Dwon the Aisle
TTITLE4=Tear After Tear
TTITLE5=You Will Fill my Eyes no More
TTITLE6=Danny Boy
TTITLE7=Have I Sinned
TTITLE8=C'est la Vie
TTITLE9=One Phone Call
TTITLE10=Impossible
TTITLE11=I Believe
EXTD=
EXTT0=
EXTT1=
EXTT2=
EXTT3=
EXTT4=
EXTT5=
EXTT6=
EXTT7=
EXTT8=
EXTT9=
EXTT10=
EXTT11=
PLAYORDER=
